<?xml version="1.0" encoding="UTF-8"?>
<svg xmlns="http://www.w3.org/2000/svg" viewBox="0 0 1280 720" width="1280" height="720">
  <defs>
    </defs>

  <rect width="1280" height="720" fill="#FAFAFA"/>

  <g stroke="#FFFFFF" stroke-opacity="0.04" stroke-width="1">
    <line x1="0" y1="180" x2="1280" y2="180"/>
    <line x1="0" y1="360" x2="1280" y2="360"/>
    <line x1="0" y1="540" x2="1280" y2="540"/>
    <line x1="320" y1="0" x2="320" y2="720"/>
    <line x1="640" y1="0" x2="640" y2="720"/>
    <line x1="960" y1="0" x2="960" y2="720"/>
  </g>

  <ellipse cx="1080" cy="140" rx="320" ry="210" fill="#FAFAFA"/>
  <ellipse cx="180" cy="580" rx="260" ry="190" fill="#FAFAFA"/>

  <g stroke="#2F2F2F" stroke-opacity="0.35" stroke-width="1" fill="none">
    <path d="M80,220 Q230,170 330,240"/>
    <path d="M950,500 Q1050,440 1160,500"/>
  </g>
  <g fill="#2F2F2F" fill-opacity="0.55">
    <circle cx="80" cy="220" r="4"/>
    <circle cx="330" cy="240" r="5"/>
    <circle cx="950" cy="500" r="5"/>
    <circle cx="1160" cy="500" r="4"/>
  </g>

  <rect x="80" y="88" width="96" height="4" fill="#C04A3C"/>
  <text x="80" y="132" font-family="Microsoft YaHei, PingFang SC, sans-serif" font-size="20" font-weight="500" fill="#A0A0A0" letter-spacing="4">
    SURVEY INSIGHTS REPORT
  </text>

  <text x="80" y="320" font-family="Microsoft YaHei, PingFang SC, sans-serif" font-size="64" font-weight="700" fill="#FFFFFF">
    {{TITLE}}
  </text>

  <text x="80" y="400" font-family="Microsoft YaHei, PingFang SC, sans-serif" font-size="28" font-weight="400" fill="#A0A0A0" opacity="0.9">
    基于 {{TOTAL}} 份有效答卷的数据分析
  </text>

  <line x1="80" y1="470" x2="1200" y2="470" stroke="#FFFFFF" stroke-opacity="0.15" stroke-width="1"/>

  <g font-family="Microsoft YaHei, PingFang SC, sans-serif" fill="#FFFFFF">
    <text x="80" y="540" font-size="16" fill="#A0A0A0" letter-spacing="2">样本量</text>
    <text x="80" y="590" font-size="36" font-weight="700">{{TOTAL}}</text>

    <text x="380" y="540" font-size="16" fill="#A0A0A0" letter-spacing="2">问卷编号</text>
    <text x="380" y="590" font-size="28" font-weight="500">{{VID}}</text>

    <text x="780" y="540" font-size="16" fill="#A0A0A0" letter-spacing="2">报告日期</text>
    <text x="780" y="590" font-size="28" font-weight="500">{{DATE}}</text>
  </g>

  <text x="80" y="680" font-family="Microsoft YaHei, PingFang SC, sans-serif" font-size="14" fill="#888888" letter-spacing="1">
    问卷星 · AI 智能分析
  </text>
  <text x="1200" y="680" text-anchor="end" font-family="Microsoft YaHei, PingFang SC, sans-serif" font-size="14" fill="#888888">
    01
  </text>
</svg>
